<svg id="Smart_Home_Logo" data-name="Smart Home Logo" xmlns="http://www.w3.org/2000/svg" viewBox="0 0 959.58 959.58"><defs><style>.cls-1{fill:#0a507f;}.cls-2{fill:#fff;}.cls-3{opacity:0.39;}</style></defs><title>logo-master</title><g id="SMART_HOME_Text" data-name="SMARTHOME Text"><path class="cls-1" d="M336.16,628.77c-16.33,0-26.16-6.56-31.73-11.88a36.5,36.5,0,0,1-10.76-25.53,10.77,10.77,0,0,1,21.52,0c0,6.2,4.46,16.84,21,16.84s21-10.64,21-16.84c0-9.4-5.38-12.24-23.57-17.2-8.16-2.3-16.51-4.61-23.38-9.22q-13.9-9-13.91-25.53a34.37,34.37,0,0,1,10-23.93c5.19-5.14,14.66-11.17,29.87-11.17,15.4,0,24.68,6,29.87,11.17a33.76,33.76,0,0,1,10.21,23.93c0,5.67-4.83,10.28-10.95,10.28a10.53,10.53,0,0,1-10.76-10.28c0-5.32-3.9-14.54-18.37-14.54s-18.37,9.22-18.37,14.54c0,6.92,2.79,9.58,21.71,14.89,8.54,2.31,17.44,4.79,24.68,9.75,9.65,6.39,14.47,15.61,14.47,27.31a36.5,36.5,0,0,1-10.76,25.53C362.51,622.21,352.49,628.77,336.16,628.77Z"/><path class="cls-1" d="M504.63,628.77a10.57,10.57,0,0,1-10.76-10.46v-70l-29.13,41.48a11.09,11.09,0,0,1-18,0l-29.13-41.48v70a10.76,10.76,0,0,1-21.52,0V514.41a10.33,10.33,0,0,1,7.61-9.75,10.82,10.82,0,0,1,12.06,4.08l40.07,56.73,39.9-56.73a10.82,10.82,0,0,1,12.06-4.08,10.35,10.35,0,0,1,7.61,9.75v103.9A10.58,10.58,0,0,1,504.63,628.77Z"/><path class="cls-1" d="M643.05,627.88a10,10,0,0,1-4.45.89,10.9,10.9,0,0,1-9.84-6.21l-11.13-24.47H564.56l-11.13,24.47a11,11,0,0,1-14.29,5.32,10.24,10.24,0,0,1-5.56-13.47l47.68-103.9a10.9,10.9,0,0,1,19.67,0l47.69,103.9C651,619.55,648.43,625.58,643.05,627.88Zm-34.88-50.35L591.1,540.3,574,577.53Z"/><path class="cls-1" d="M756.42,611.21a10.22,10.22,0,0,1-.38,14.72,10.79,10.79,0,0,1-7.42,2.84,10.64,10.64,0,0,1-7.79-3.19l-31.54-31.21H688.51v24.11a10.78,10.78,0,0,1-21.53,0V514.59a10.54,10.54,0,0,1,10.76-10.28h36.19c26,0,47.12,20.21,47.12,45,0,17.73-10.76,33.15-26.53,40.42Zm-67.91-37.4h25.42c14.1,0,25.42-11,25.42-24.47S728,524.87,713.93,524.87H688.51Z"/><path class="cls-1" d="M875.16,514.59a10.53,10.53,0,0,1-10.76,10.28H834.9v93.61c0,5.68-4.82,10.29-10.95,10.29a10.54,10.54,0,0,1-10.76-10.29V524.87h-29.5a10.29,10.29,0,1,1,0-20.56H864.4A10.53,10.53,0,0,1,875.16,514.59Z"/><path class="cls-1" d="M405.35,673V785.15a11.37,11.37,0,0,1-11.62,11.1c-6.41,0-11.82-5-11.82-11.1V744.57H317.2v40.58a11.63,11.63,0,0,1-23.23,0V673a11.63,11.63,0,0,1,23.23,0v49.39h64.71V673c0-6.13,5.41-11.1,11.82-11.1A11.37,11.37,0,0,1,405.35,673Z"/><path class="cls-1" d="M501.91,796.25c-38.87,0-70.32-30-70.32-67.18,0-37,31.45-67.19,70.32-67.19,38.66,0,70.31,30.24,70.31,67.19C572.22,766.2,540.57,796.25,501.91,796.25Zm0-112.17c-26.05,0-47.08,20.29-47.08,45,0,24.88,21,45,47.08,45,25.84,0,47.08-20.1,47.08-45C549,704.37,527.75,684.08,501.91,684.08Z"/><path class="cls-1" d="M715.66,796.25A11.4,11.4,0,0,1,704,785V709.35l-31.46,44.79a12,12,0,0,1-19.43,0L621.7,709.35V785a11.62,11.62,0,0,1-23.24,0V672.79a11.17,11.17,0,0,1,8.21-10.53,11.69,11.69,0,0,1,13,4.4L663,727.92,706,666.66a11.67,11.67,0,0,1,13-4.4,11.16,11.16,0,0,1,8.21,10.53V785A11.4,11.4,0,0,1,715.66,796.25Z"/><path class="cls-1" d="M855.28,785.15a11.37,11.37,0,0,1-11.62,11.1H767.13a11.37,11.37,0,0,1-11.61-11.1V673a11.53,11.53,0,0,1,11.61-11.3h76.53A11.54,11.54,0,0,1,855.28,673a11.38,11.38,0,0,1-11.62,11.1H778.75v31H824a11.21,11.21,0,1,1,0,22.4H778.75v36.37h64.91A11.41,11.41,0,0,1,855.28,785.15Z"/><path class="cls-2" d="M336.16,628.77c-16.33,0-26.16-6.56-31.73-11.88a36.5,36.5,0,0,1-10.76-25.53,10.77,10.77,0,0,1,21.52,0c0,6.2,4.46,16.84,21,16.84s21-10.64,21-16.84c0-9.4-5.38-12.24-23.57-17.2-8.16-2.3-16.51-4.61-23.38-9.22q-13.9-9-13.91-25.53a34.37,34.37,0,0,1,10-23.93c5.19-5.14,14.66-11.17,29.87-11.17,15.4,0,24.68,6,29.87,11.17a33.76,33.76,0,0,1,10.21,23.93c0,5.67-4.83,10.28-10.95,10.28a10.53,10.53,0,0,1-10.76-10.28c0-5.32-3.9-14.54-18.37-14.54s-18.37,9.22-18.37,14.54c0,6.92,2.79,9.58,21.71,14.89,8.54,2.31,17.44,4.79,24.68,9.75,9.65,6.39,14.47,15.61,14.47,27.31a36.5,36.5,0,0,1-10.76,25.53C362.51,622.21,352.49,628.77,336.16,628.77Z"/><path class="cls-2" d="M504.63,628.77a10.57,10.57,0,0,1-10.76-10.46v-70l-29.13,41.48a11.09,11.09,0,0,1-18,0l-29.13-41.48v70a10.76,10.76,0,0,1-21.52,0V514.41a10.33,10.33,0,0,1,7.61-9.75,10.82,10.82,0,0,1,12.06,4.08l40.07,56.73,39.9-56.73a10.82,10.82,0,0,1,12.06-4.08,10.35,10.35,0,0,1,7.61,9.75v103.9A10.58,10.58,0,0,1,504.63,628.77Z"/><path class="cls-2" d="M643.05,627.88a10,10,0,0,1-4.45.89,10.9,10.9,0,0,1-9.84-6.21l-11.13-24.47H564.56l-11.13,24.47a11,11,0,0,1-14.29,5.32,10.24,10.24,0,0,1-5.56-13.47l47.68-103.9a10.9,10.9,0,0,1,19.67,0l47.69,103.9C651,619.55,648.43,625.58,643.05,627.88Zm-34.88-50.35L591.1,540.3,574,577.53Z"/><path class="cls-2" d="M756.42,611.21a10.22,10.22,0,0,1-.38,14.72,10.79,10.79,0,0,1-7.42,2.84,10.64,10.64,0,0,1-7.79-3.19l-31.54-31.21H688.51v24.11a10.78,10.78,0,0,1-21.53,0V514.59a10.54,10.54,0,0,1,10.76-10.28h36.19c26,0,47.12,20.21,47.12,45,0,17.73-10.76,33.15-26.53,40.42Zm-67.91-37.4h25.42c14.1,0,25.42-11,25.42-24.47S728,524.87,713.93,524.87H688.51Z"/><path class="cls-2" d="M875.16,514.59a10.53,10.53,0,0,1-10.76,10.28H834.9v93.61c0,5.68-4.82,10.29-10.95,10.29a10.54,10.54,0,0,1-10.76-10.29V524.87h-29.5a10.29,10.29,0,1,1,0-20.56H864.4A10.53,10.53,0,0,1,875.16,514.59Z"/><path class="cls-2" d="M405.35,673V785.15a11.37,11.37,0,0,1-11.62,11.1c-6.41,0-11.82-5-11.82-11.1V744.57H317.2v40.58a11.63,11.63,0,0,1-23.23,0V673a11.63,11.63,0,0,1,23.23,0v49.39h64.71V673c0-6.13,5.41-11.1,11.82-11.1A11.37,11.37,0,0,1,405.35,673Z"/><path class="cls-2" d="M501.91,796.25c-38.87,0-70.32-30-70.32-67.18,0-37,31.45-67.19,70.32-67.19,38.66,0,70.31,30.24,70.31,67.19C572.22,766.2,540.57,796.25,501.91,796.25Zm0-112.17c-26.05,0-47.08,20.29-47.08,45,0,24.88,21,45,47.08,45,25.84,0,47.08-20.1,47.08-45C549,704.37,527.75,684.08,501.91,684.08Z"/><path class="cls-2" d="M715.66,796.25A11.4,11.4,0,0,1,704,785V709.35l-31.46,44.79a12,12,0,0,1-19.43,0L621.7,709.35V785a11.62,11.62,0,0,1-23.24,0V672.79a11.17,11.17,0,0,1,8.21-10.53,11.69,11.69,0,0,1,13,4.4L663,727.92,706,666.66a11.67,11.67,0,0,1,13-4.4,11.16,11.16,0,0,1,8.21,10.53V785A11.4,11.4,0,0,1,715.66,796.25Z"/><path class="cls-2" d="M855.28,785.15a11.37,11.37,0,0,1-11.62,11.1H767.13a11.37,11.37,0,0,1-11.61-11.1V673a11.53,11.53,0,0,1,11.61-11.3h76.53A11.54,11.54,0,0,1,855.28,673a11.38,11.38,0,0,1-11.62,11.1H778.75v31H824a11.21,11.21,0,1,1,0,22.4H778.75v36.37h64.91A11.41,11.41,0,0,1,855.28,785.15Z"/></g><g id="House"><g id="Group_2" data-name="Group 2"><path class="cls-2" d="M322,274.94c.74-6.74,1.51-14-1.82-20.24-3.77-7.09-7.61-14.13-11.61-21l-122,89.46a46.14,46.14,0,0,1,10.89,12.05,337.15,337.15,0,0,1,32.29,70.29q4,12,7,24.07a14.78,14.78,0,0,1,3.53-5.54l86-84.38C321.5,319.16,319.37,298.47,322,274.94Z"/><path class="cls-2" d="M811.54,420.41c4.11-4.81,7.46,1.53,10.34,4.09l4.34,3.83h32c-4.15-3.16-8.64-7.47-13.14-7.69-18.17-.9-26.86-13.54-36.68-25.93-22.49-28.39-51.12-51-74.74-78.56-10-11.69-11.08-26.72-21.23-37.74-18.52-20.1-36-41.18-53.81-61.93-2.09-2.44-5.7-4.15-4.69-9.84,20.4,12.61,36.78,28.44,51.6,46.33,19.25,23.24,35.08,49.55,59.87,67.91,2.35,1.74,4.52,3.78,7,5.27s5.54,3.29,7.89.24c2.11-2.74.49-5.75-1.41-8-9.8-11.53-18.42-24.59-30-34-14.68-11.84-24.54-26.82-32.75-42.69a133.64,133.64,0,0,0-12.82-20L619.86,153.1c-10.78-3.43-21.32-1-36.17,6.82-4.76,2.5-9.41,5.21-14.19,7.67s-9.92,8.74-15.45,2.42c-5.08-5.79-5.91-12.53-1.94-20.3A114.18,114.18,0,0,1,576.7,117.6l-15.87-13.07c-8.62,3.12-16.68,7.43-23.58,14.33-11.16,11.16-22.11,7.73-31.88-2.14-5.21-5.25-9.93-11-14.77-16.6l-65.44,48q.79,2.69,1.48,5.65c5.3,23,3.07,48.24,19.72,67.89l68.08-66.82a14.78,14.78,0,0,1,20.81.1l67.84,67.82c6.21-4.62,12.67-8.56,18-12.35,6.25,1.21,9.72,1.5,12.92,2.59,6.2,2.1,16.2,2.41,15.65,10.06-.45,6.38-10,2.83-15.35,4.07q-11,2.52-22,4.82L804.36,424a14.84,14.84,0,0,0,9.18,4.26C811.11,425.9,809.23,423.12,811.54,420.41Z"/><path class="cls-2" d="M101.12,421.05c-1.64-7.55-1.6-15.22,6.85-18.83,9.06-3.87,17.3-1.75,23.72,5.94,6.27,7.5,12.31,15.19,18.6,22.66,4,4.76,8.34,12,15.32,6.49,7.37-5.83,4.26-14.13-1.37-19.24-9.16-8.31-15.75-18.58-23.92-27.56-7.57-8.31-16-13.34-26.19-14.31L64,413a14.79,14.79,0,0,0,2.94,25.52l23.59,10.07C100.1,441.92,103.72,433,101.12,421.05Z"/><path class="cls-2" d="M365.13,237.26c7.93,3.71,13.05,0,17.05-6.52s4.39-13.77,4.9-21.16a148,148,0,0,0-1.7-32.3l-37,27.14a245.55,245.55,0,0,1,16.76,32.85Z"/><path class="cls-2" d="M201.15,580.41c-14,1-27.33,3.79-40.79,5.71l5.49,240a14.8,14.8,0,0,0,14.79,14.45H221a14.79,14.79,0,0,0,14.79-14.79V544.92c-.57,1.93-1.16,3.87-1.79,5.8C228.78,566.78,217.91,579.26,201.15,580.41Z"/><path class="cls-2" d="M865,402.77c-1.22,3.47,1.63,5.3,4.34,6.52,6.41,2.89,10.45,8.7,15.88,12.67,3,2.16,5.91,4.3,8.91,6.37h19a14.46,14.46,0,0,0,9.81-3.67,299.11,299.11,0,0,1-49.34-24.6C870.69,398.27,866.49,398.59,865,402.77Z"/><path class="cls-2" d="M504.18,98.16c11.38,6.81,15.49,5.34,17.34-7.62a35.24,35.24,0,0,0-.29-11.3,14.8,14.8,0,0,0-5.6,2.52L498.92,94A24.24,24.24,0,0,0,504.18,98.16Z"/><path class="cls-2" d="M826.22,428.33l-4.34-3.83c-2.88-2.56-6.23-8.9-10.34-4.09-2.31,2.71-.43,5.49,2,7.85.42,0,.85.07,1.28.07Z"/><path class="cls-2" d="M459.68,404.68l180.87.22A9.92,9.92,0,0,0,648,388.39L532.84,258.62a9.92,9.92,0,0,0-14.54-.33l-63.39,65.25q-.21,10.83-1,21.67C452.52,365.76,455.25,385.37,459.68,404.68Z"/></g><g id="Group_1" data-name="Group 1" class="cls-3"><path class="cls-2" d="M197.42,335.16a46.14,46.14,0,0,0-10.89-12.05l-72.4,53.09c10.23,1,18.62,6,26.19,14.31,8.17,9,14.76,19.25,23.92,27.56,5.63,5.11,8.74,13.41,1.37,19.24-7,5.53-11.31-1.73-15.32-6.49-6.29-7.47-12.33-15.16-18.6-22.66-6.42-7.69-14.66-9.81-23.72-5.94-8.45,3.61-8.49,11.28-6.85,18.83,2.6,11.94-1,20.87-10.63,27.53l58.62,25a14.77,14.77,0,0,1,9,13.26l2.28,99.26c13.46-1.92,26.84-4.76,40.79-5.71,16.76-1.15,27.63-13.63,32.85-29.69.63-1.93,1.22-3.87,1.79-5.8V434.53a14.6,14.6,0,0,1,.89-5q-3-12-7-24.07A337.15,337.15,0,0,0,197.42,335.16Z"/><path class="cls-2" d="M425.16,148.11l-39.78,29.17a148,148,0,0,1,1.7,32.3c-.51,7.39-.92,14.66-4.9,21.16s-9.12,10.23-17.05,6.52h0a245.55,245.55,0,0,0-16.76-32.85l-39.85,29.23c4,6.92,7.84,14,11.61,21,3.33,6.24,2.56,13.5,1.82,20.24-2.58,23.53-.45,44.22,4.23,64.66l120.18-118c-16.65-19.65-14.42-44.92-19.72-67.89Q426,150.79,425.16,148.11Z"/><path class="cls-2" d="M649.66,223.05c.55-7.65-9.45-8-15.65-10.06-3.2-1.09-6.67-1.38-12.92-2.59-5.33,3.79-11.79,7.73-18,12.35l9.19,9.19q11-2.3,22-4.82C639.7,225.88,649.21,229.43,649.66,223.05Z"/><path class="cls-2" d="M748.84,284.46c11.59,9.36,20.21,22.42,30,34,1.9,2.23,3.52,5.24,1.41,8-2.35,3.05-5.42,1.24-7.89-.24s-4.66-3.53-7-5.27c-24.79-18.36-40.62-44.67-59.87-67.91-14.82-17.89-31.2-33.72-51.6-46.33-1,5.69,2.6,7.4,4.69,9.84,17.82,20.75,35.29,41.83,53.81,61.93,10.15,11,11.2,26,21.23,37.74,23.62,27.55,52.25,50.17,74.74,78.56,9.82,12.39,18.51,25,36.68,25.93,4.5.22,9,4.53,13.14,7.69h36c-3-2.07-6-4.21-8.91-6.37-5.43-4-9.47-9.78-15.88-12.67-2.71-1.22-5.56-3.05-4.34-6.52,1.47-4.18,5.67-4.5,8.57-2.71a299.11,299.11,0,0,0,49.34,24.6,14.8,14.8,0,0,0-.42-22.54L703.27,221.73a133.64,133.64,0,0,1,12.82,20C724.3,257.64,734.16,272.62,748.84,284.46Z"/><path class="cls-2" d="M537.25,118.86c6.9-6.9,15-11.21,23.58-14.33L533.77,82.27a14.77,14.77,0,0,0-12.54-3,35.24,35.24,0,0,1,.29,11.3c-1.85,13-6,14.43-17.34,7.62A24.24,24.24,0,0,1,498.92,94l-8.32,6.11c4.84,5.62,9.56,11.35,14.77,16.6C515.14,126.59,526.09,130,537.25,118.86Z"/><path class="cls-2" d="M552.11,149.71c-4,7.77-3.14,14.51,1.94,20.3,5.53,6.32,10.55.11,15.45-2.42s9.43-5.17,14.19-7.67c14.85-7.82,25.39-10.25,36.17-6.82L576.7,117.6A114.18,114.18,0,0,0,552.11,149.71Z"/><path class="cls-2" d="M399.62,404.61l60.06.07c-4.43-19.31-7.16-38.92-5.72-59.47q.75-10.84,1-21.67l-62.4,64.23A9.92,9.92,0,0,0,399.62,404.61Z"/></g></g></svg>